<?xml version="1.0" encoding="UTF-8"?>
<svg width="24" height="24" viewBox="0 0 24 24" fill="none" xmlns="http://www.w3.org/2000/svg">
    <path fill-rule="evenodd" clip-rule="evenodd" d="M12 0C5.375 0 0 5.375 0 12C0 18.625 5.375 24 12 24C18.625 24 24 18.625 24 12C24 5.375 18.625 0 12 0ZM19.938 5.5C21.314 7.187 22.064 9.25 22.125 11.484C21.842 11.422 18.467 10.75 15.064 11.156C14.979 10.969 14.904 10.773 14.822 10.578C14.604 10.068 14.363 9.553 14.115 9.053C17.869 7.599 19.674 5.818 19.938 5.5ZM12 1.891C14.484 1.891 16.766 2.797 18.531 4.297C18.311 4.578 16.693 6.234 13.088 7.516C11.443 4.625 9.621 2.297 9.338 1.922C10.203 1.875 11.094 1.891 12 1.891ZM7.453 2.578C7.719 2.922 9.506 5.266 11.172 8.094C6.484 9.276 2.375 9.25 1.922 9.25C2.563 6.313 4.656 3.906 7.453 2.578ZM1.859 12.016V11.641C2.297 11.656 7.172 11.719 12.234 10.297C12.547 10.906 12.834 11.531 13.109 12.156C12.984 12.203 12.85 12.25 12.725 12.297C7.516 13.906 4.672 18.641 4.391 19.094C2.813 17.312 1.859 14.781 1.859 12.016ZM12 22.141C9.75 22.141 7.687 21.391 5.984 20.125C6.203 19.687 8.297 15.625 14.016 13.703C14.031 13.688 14.047 13.688 14.063 13.672C15.531 17.437 16.141 20.625 16.313 21.547C14.984 21.953 13.531 22.141 12 22.141ZM18.109 20.594C17.984 19.938 17.422 16.891 16.063 13.203C19.25 12.719 22.047 13.531 22.344 13.625C21.891 16.516 20.328 19.016 18.109 20.594Z" fill="currentColor"/>
</svg>
